<?xml version="1.0" encoding="UTF-8"?>
<svg version="1.1" xmlns="http://www.w3.org/2000/svg" width="1254" height="1254">
<path d="M0 0 C413.82 0 827.64 0 1254 0 C1254 413.82 1254 827.64 1254 1254 C840.18 1254 426.36 1254 0 1254 C0 840.18 0 426.36 0 0 Z " fill="#020E1E" transform="translate(0,0)"/>
<path d="M0 0 C413.82 0 827.64 0 1254 0 C1254 413.82 1254 827.64 1254 1254 C840.18 1254 426.36 1254 0 1254 C0 840.18 0 426.36 0 0 Z M232.125 52.1875 C231.48590698 52.33961945 230.84681396 52.49173889 230.18835449 52.64846802 C197.0895037 60.55821786 166.80780968 75.02763172 140 96 C139.40493652 96.45826172 138.80987305 96.91652344 138.19677734 97.38867188 C123.67479585 108.60698638 109.90431721 121.16474374 99 136 C98.40574219 136.76183594 97.81148437 137.52367187 97.19921875 138.30859375 C94.12624261 141.77931269 94.12624261 141.77931269 93 146 C92.34 146 91.68 146 91 146 C89.23468884 148.59280077 87.60066985 151.18210189 86 153.875 C85.51233154 154.68783447 85.02466309 155.50066895 84.5222168 156.33813477 C83.00318098 158.88541076 81.49943957 161.44114699 80 164 C79.54963379 164.76328613 79.09926758 165.52657227 78.63525391 166.31298828 C60.10332528 197.91239149 48.81214652 233.941192 48.86857224 270.7102623 C48.8665196 271.96291777 48.86446697 273.21557325 48.86235213 274.50618798 C48.85681861 277.97290129 48.85745178 281.43958975 48.85912972 284.90630605 C48.85986375 288.68198683 48.85483101 292.45766077 48.8505547 296.23333859 C48.8429904 303.7174474 48.84078244 311.20154907 48.84022565 318.6856613 C48.83931045 327.6523593 48.83263823 336.61905074 48.82587883 345.5857459 C48.80983195 367.25696924 48.80391689 388.92819185 48.79913008 410.59942006 C48.79679266 420.85595337 48.79318983 431.11248612 48.7894347 441.369019 C48.77659991 476.49346252 48.76588102 511.61790572 48.7624321 546.74235153 C48.76221047 548.94657288 48.76198868 551.15079424 48.76176675 553.35501559 C48.76154611 555.56449585 48.76132563 557.77397611 48.7611053 559.98345637 C48.76066275 564.41589149 48.76021564 568.8483266 48.75976562 573.28076172 C48.75965623 574.37974491 48.75954684 575.47872809 48.75943414 576.6110138 C48.75580475 612.23325472 48.73988879 647.85547526 48.71657526 683.47770838 C48.69195939 721.15894091 48.67825843 758.8401618 48.67706418 796.5214026 C48.67689273 800.66079601 48.67667731 804.80018942 48.67642975 808.93958282 C48.67637398 809.95878272 48.67631821 810.97798262 48.67626075 812.02806736 C48.6751118 828.40498234 48.66410296 844.78187638 48.64954269 861.1587843 C48.63515073 877.63172272 48.63195592 894.10463439 48.63998267 910.57757738 C48.64442631 920.35333276 48.64062918 930.12900154 48.62474416 939.90474547 C48.61494731 946.44871372 48.616217 952.99262173 48.62618039 959.53658952 C48.63153874 963.25603362 48.63239298 966.97531222 48.61967167 970.69474217 C48.1444063 998.26560243 48.1444063 998.26560243 54 1025 C54.36989778 1026.42540229 54.719314 1027.85636036 55.04296875 1029.29296875 C58.74107239 1045.16779479 63.84207283 1060.32878758 71 1075 C71.30164063 1075.64195313 71.60328125 1076.28390625 71.9140625 1076.9453125 C76.46695977 1086.40742074 81.78643636 1095.54264949 88 1104 C88.57878906 1105.05703125 89.15757813 1106.1140625 89.75390625 1107.203125 C92.14191972 1111.43016418 95.09566624 1115.08289089 98.1875 1118.8125 C99.05785889 1119.87005493 99.05785889 1119.87005493 99.94580078 1120.94897461 C112.54374938 1136.17862664 125.93123436 1150.41983088 142 1162 C142.969375 1162.71800781 143.93875 1163.43601562 144.9375 1164.17578125 C169.02616847 1181.94117424 196.01974214 1194.59970678 225 1202 C226.03979004 1202.27457031 226.03979004 1202.27457031 227.10058594 1202.5546875 C248.63471337 1208.22318456 269.88640777 1209.45074657 292.09005431 1209.3792013 C295.82629865 1209.37056715 299.56251167 1209.37962265 303.29875439 1209.38626546 C309.82512269 1209.39549727 316.35141366 1209.39375771 322.87778091 1209.38453293 C332.58291393 1209.37085316 342.28798832 1209.37452468 351.99312573 1209.38149153 C369.33129085 1209.39338189 386.66941946 1209.38836013 404.00758255 1209.37621326 C419.17779444 1209.3656581 434.34799392 1209.36114019 449.51820946 1209.36250877 C451.03029009 1209.36263482 451.03029009 1209.36263482 452.57291781 1209.36276341 C456.66534933 1209.36311568 460.75778084 1209.3634997 464.85021234 1209.36392899 C503.19903649 1209.36788946 541.54783871 1209.35519702 579.89665659 1209.33440243 C613.94323557 1209.3160275 647.98979354 1209.31022237 682.03637695 1209.31567383 C684.2233618 1209.31602026 686.41034665 1209.31636636 688.5973315 1209.31671212 C689.67855371 1209.31688311 690.75977592 1209.31705411 691.87376244 1209.31723029 C697.31687216 1209.31808387 702.75998189 1209.31890766 708.20309162 1209.31969929 C709.27701398 1209.31985637 710.35093634 1209.32001345 711.4574018 1209.32017529 C739.93866417 1209.32416748 768.41992454 1209.31868704 796.90118569 1209.310188 C799.96656325 1209.30928099 803.03194081 1209.30837534 806.09731837 1209.30747276 C808.13065421 1209.30687166 810.16399005 1209.30626304 812.19732589 1209.30564686 C826.35534613 1209.30143038 840.51336239 1209.30084516 854.67138306 1209.30275235 C872.91550257 1209.30519782 891.15960081 1209.30110291 909.40371452 1209.28554235 C919.04503225 1209.27750808 928.68631455 1209.27487877 938.32763437 1209.2801847 C944.77519001 1209.28317115 951.22271445 1209.27882973 957.67026263 1209.26863613 C961.33849789 1209.26303374 965.00666115 1209.26046683 968.67489687 1209.26680271 C986.19728261 1209.29454223 1003.25976242 1209.02183423 1020.4375 1205.1875 C1021.61107056 1204.93093628 1021.61107056 1204.93093628 1022.80834961 1204.66918945 C1037.05819762 1201.48302121 1050.6071257 1197.27974986 1064.12451172 1191.75634766 C1065.65733642 1191.1381895 1067.20393733 1190.55428703 1068.75390625 1189.98046875 C1088.64140145 1182.61099083 1108.15069223 1169.95185544 1124 1156 C1124.8765625 1155.23171875 1125.753125 1154.4634375 1126.65625 1153.671875 C1138.85713779 1142.71731446 1151.35013625 1131.30511517 1161 1118 C1162.14082031 1116.47439453 1162.14082031 1116.47439453 1163.3046875 1114.91796875 C1191.63295192 1076.60332089 1209.20536722 1031.12659212 1209.13142776 983.20071793 C1209.1334804 981.95058495 1209.13553303 980.70045198 1209.13764787 979.41243619 C1209.14317402 975.95745264 1209.1425496 972.50249407 1209.14087028 969.04750753 C1209.14013551 965.28278891 1209.14517068 961.51807712 1209.1494453 957.75336146 C1209.15700536 950.29313448 1209.15921734 942.83291466 1209.15977435 935.37268425 C1209.16068997 926.43371621 1209.16736342 917.49475475 1209.17412117 908.55578956 C1209.19016358 886.95252765 1209.19608257 865.34926647 1209.20086992 843.74599967 C1209.20320775 833.52079122 1209.20681062 823.29558333 1209.2105653 813.07037531 C1209.22339958 778.05012824 1209.23411861 743.02988148 1209.2375679 708.00963211 C1209.23778953 705.81220056 1209.23801132 703.61476901 1209.23823325 701.41733746 C1209.23845389 699.21467887 1209.23867437 697.01202028 1209.2388947 694.8093617 C1209.23933725 690.39064868 1209.23978436 685.97193567 1209.24023438 681.55322266 C1209.24039846 679.90985287 1209.24039846 679.90985287 1209.24056586 678.23328369 C1209.24419522 642.7217192 1209.26011131 607.21017513 1209.28342474 571.69861846 C1209.30804316 534.1303944 1209.32174168 496.56218201 1209.32293582 458.99394965 C1209.32310727 454.86663039 1209.32332269 450.73931114 1209.32357025 446.61199188 C1209.32362602 445.59577221 1209.32368179 444.57955254 1209.32373925 443.53253833 C1209.32488797 427.20701659 1209.33589475 410.88151587 1209.35045731 394.55600122 C1209.36485252 378.13357685 1209.36804225 361.71117933 1209.36001733 345.28875038 C1209.35557525 335.54430502 1209.3593645 325.79994657 1209.37525584 316.0555127 C1209.38505815 309.53117393 1209.38377788 303.00689555 1209.37381961 296.48255723 C1209.36846514 292.77516227 1209.3675941 289.06793329 1209.38032833 285.36055258 C1209.45306354 262.74697092 1208.03740665 240.86980073 1202 219 C1201.7740918 218.17838379 1201.54818359 217.35676758 1201.31542969 216.51025391 C1198.56646184 206.65334576 1195.65662704 197.14462971 1191 188 C1190.39546129 186.75992933 1189.79273757 185.51897291 1189.19140625 184.27734375 C1182.78633149 171.14328861 1176.01539912 157.55494817 1167 146 C1166.34 146 1165.68 146 1165 146 C1164.91105469 145.20335937 1164.91105469 145.20335937 1164.8203125 144.390625 C1163.62358861 140.90302966 1161.27443495 138.4740458 1158.875 135.75 C1158.37000977 135.16718262 1157.86501953 134.58436523 1157.34472656 133.98388672 C1156.34230369 132.82830699 1155.3371673 131.67507457 1154.32910156 130.52441406 C1153.28595081 129.32797151 1152.26060013 128.11600638 1151.2421875 126.8984375 C1141.09873893 114.84313475 1129.56901844 104.43488335 1117 95 C1115.700625 93.95972656 1115.700625 93.95972656 1114.375 92.8984375 C1101.09135587 82.28026144 1085.99695652 73.7793272 1070.3984375 67.08984375 C1069.03324723 66.46950485 1067.67598331 65.82854357 1066.35058594 65.12719727 C1060.60041141 62.10253473 1054.68358117 60.02938864 1048.5 58.0625 C1046.86708008 57.54308838 1046.86708008 57.54308838 1045.20117188 57.01318359 C1037.70223562 54.69326772 1030.1817889 52.73660337 1022.5 51.125 C1021.59572266 50.93429932 1020.69144531 50.74359863 1019.75976562 50.54711914 C1002.01094221 47.03896319 984.59655709 46.70746088 966.56241722 46.74306489 C962.83316176 46.74818583 959.10392258 46.74159983 955.37466949 46.73657823 C948.85279581 46.72938651 942.33095529 46.7295544 935.80908012 46.73467255 C926.11048255 46.74226285 916.41191275 46.7383569 906.71331534 46.73225593 C889.38756659 46.72174216 872.06183262 46.7226302 854.73608248 46.72841376 C839.5731525 46.73345031 824.41022793 46.73475574 809.24729729 46.73236847 C807.73699831 46.73213931 807.73699831 46.73213931 806.19618825 46.73190553 C802.10869833 46.73128282 798.02120842 46.73064602 793.93371852 46.729986 C755.6102615 46.7238716 717.28681389 46.72940913 678.96335832 46.7401798 C644.93772538 46.74966988 610.91210742 46.74882194 576.88647461 46.73925781 C538.63338791 46.72854128 500.38030951 46.72430601 462.12722152 46.73048234 C458.04698718 46.73112375 453.96675283 46.73174943 449.88651848 46.73236847 C448.37959961 46.7326057 448.37959961 46.7326057 446.84223793 46.73284773 C431.69194278 46.73511974 416.54165365 46.73246757 401.39135933 46.72740936 C384.15874071 46.72168452 366.92613914 46.72313397 349.69352264 46.73397085 C340.05688282 46.73983154 330.42027996 46.74024398 320.78364112 46.7326785 C314.33775266 46.72817742 307.89189368 46.73101421 301.44600956 46.73968804 C297.77945631 46.74442201 294.11297621 46.74612194 290.44642539 46.73887607 C270.47512148 46.70237178 251.59045627 47.48817659 232.125 52.1875 Z " fill="#000000" transform="translate(0,0)"/>
<path d="M0 0 C3.63 0 7.26 0 11 0 C11.49290527 0.99104736 11.98581055 1.98209473 12.49365234 3.00317383 C14.37394782 6.78226243 16.25715265 10.55989561 18.14111328 14.3371582 C18.94655955 15.95299114 19.75128024 17.56918602 20.55517578 19.18579102 C25.29697058 28.71995182 30.12635296 38.19801468 35.10792542 47.60919189 C40.44602505 57.70721865 45.62416958 67.8869611 50.8125 78.0625 C51.33813538 79.09225952 51.86377075 80.12201904 52.40533447 81.1829834 C58.96113067 94.02663654 65.4754112 106.88851275 71.89160156 119.80249023 C75.25174868 126.55069077 78.72482212 133.23058319 82.26513672 139.88574219 C86.0957709 147.1132954 89.74491728 154.42846077 93.36352539 161.76416016 C96.37974465 167.85183494 99.50692588 173.87224365 102.6875 179.875 C108.79546885 191.41830991 114.58956009 203.11430616 120.39550781 214.81152344 C125.68528233 225.46150394 131.04054577 236.06490586 136.60754395 246.57299805 C139.66140819 252.33904407 142.61712306 258.14643103 145.5 264 C148.95515736 270.96447465 152.48185355 277.88199428 156.125 284.75 C170.08995177 311.11748815 170.08995177 311.11748815 174 322 C174 320.35 174 318.7 174 317 C180.22407427 315.85369017 186.21340535 315.99146152 192.5234375 316.19140625 C194.78384688 316.24963246 197.04426381 316.30756611 199.3046875 316.36523438 C202.84193955 316.46218237 206.37902527 316.56262072 209.91601562 316.66870117 C213.34747103 316.76930303 216.7790716 316.8561354 220.2109375 316.94140625 C221.25808929 316.97673965 222.30524109 317.01207306 223.38412476 317.04847717 C229.60407936 317.19434417 234.99590851 316.5686723 241 315 C242.98667202 314.63607556 244.97608467 314.28656364 246.96875 313.95703125 C260.07247188 311.69153712 272.09971121 309.023913 284 303 C284.6069873 302.69723145 285.21397461 302.39446289 285.83935547 302.08251953 C313.7836466 287.86577675 332.31681678 264.26894798 342.16088867 234.82006836 C346.18708194 222.41565199 347.31716175 210.32644508 347.1875 197.3125 C347.18685547 196.07177734 347.18621094 194.83105469 347.18554688 193.55273438 C347.12358047 180.5466743 346.45819002 167.96603196 341 156 C340.4554147 154.3551301 339.91409124 152.70917871 339.375 151.0625 C334.0318067 136.29253221 325.07865108 123.98930712 314 113 C313.484375 112.43796875 312.96875 111.8759375 312.4375 111.296875 C293.62151373 91.0492376 264.24804156 81.22568752 237.28610611 79.8041954 C233.31214391 79.7172424 229.34039335 79.68687301 225.36572266 79.68115234 C223.85628234 79.67182665 222.34684706 79.66165419 220.8374176 79.65071106 C216.78673351 79.62369412 212.73608361 79.60834693 208.68533373 79.59528303 C204.43458214 79.57952688 200.18389915 79.55277732 195.93319702 79.5272522 C187.90488955 79.48068339 179.87656885 79.44383416 171.84819639 79.41057932 C162.69927275 79.37220206 153.55041839 79.32283342 144.40155339 79.27259517 C125.60108648 79.1696015 106.80057713 79.08023644 88 79 C87.72194519 78.44159927 87.44389038 77.88319855 87.15740967 77.30787659 C85.87152943 74.7269046 84.58420935 72.14665324 83.296875 69.56640625 C82.85972168 68.68843384 82.42256836 67.81046143 81.97216797 66.90588379 C79.13079467 61.21394606 76.22594813 55.56021575 73.25 49.9375 C72.57807617 48.66592041 72.57807617 48.66592041 71.89257812 47.36865234 C71.52583984 46.67723145 71.15910156 45.98581055 70.78125 45.2734375 C67.71621022 39.47562995 64.69031825 33.65755411 61.67028809 27.83621216 C60.77992514 26.12017605 59.88851586 24.40468295 58.99707031 22.68920898 C58.43600586 21.60712158 57.87494141 20.52503418 57.296875 19.41015625 C56.80541992 18.46277588 56.31396484 17.51539551 55.80761719 16.53930664 C54.15017597 13.29404389 52.51559527 10.03861296 50.88702393 6.77879333 C50.34645985 5.69698005 49.80589577 4.61516676 49.24895096 3.50057125 C48.63072023 2.26278848 48.63072023 2.26278848 48 1 C74.23559152 0.92969856 100.47116877 0.87690876 126.70683575 0.84456348 C138.89044545 0.82914111 151.07399639 0.80814082 163.25756836 0.77368164 C173.88551892 0.74363678 184.5134269 0.72439142 195.14141876 0.71773452 C200.76089971 0.71384765 206.38025889 0.70481119 211.99970055 0.68280983 C217.3061264 0.66220546 222.61238216 0.65621374 227.91884422 0.66067696 C229.84993927 0.65986233 231.78104096 0.65404113 233.71210098 0.64238358 C268.80440695 0.44121365 303.25538796 8.88697033 334 26 C334.63196289 26.35030273 335.26392578 26.70060547 335.91503906 27.06152344 C349.42264137 34.64294621 361.28192994 43.83727951 372.46875 54.53613281 C373.50568341 55.52743586 374.54751769 56.51363333 375.59375 57.49511719 C408.03485356 88.00613105 429.50736498 134.46978685 431.07373047 179.10083008 C431.67644242 200.56961092 432.15796517 222.01812082 427 243 C426.76974121 243.9576123 426.53948242 244.91522461 426.30224609 245.90185547 C424.72632297 252.32921193 422.95467048 258.6779679 421 265 C420.64550781 266.15113281 420.29101562 267.30226563 419.92578125 268.48828125 C410.29396949 296.09470083 389.19992454 328.65473389 365 346 C364.01 346.33 363.02 346.66 362 347 C362 347.66 362 348.32 362 349 C360.69335938 350.18579102 360.69335938 350.18579102 358.84375 351.50390625 C358.15877441 351.99294434 357.47379883 352.48198242 356.76806641 352.98583984 C356.01960449 353.5061377 355.27114258 354.02643555 354.5 354.5625 C353.73478027 355.0982666 352.96956055 355.6340332 352.18115234 356.18603516 C345.27201688 360.94875336 338.11924901 365.10238539 330.72509766 369.05664062 C329.22466395 369.87714386 327.75546378 370.75426437 326.29296875 371.640625 C307.21398977 383.05796675 281.12655318 389.42649698 259 388 C259 388.66 259 389.32 259 390 C214.45 390 169.9 390 124 390 C112.54511971 368.23572744 112.54511971 368.23572744 107.90625 358.875 C107.38921509 357.83714355 106.87218018 356.79928711 106.33947754 355.72998047 C104.18522875 351.40554357 102.0359229 347.07865632 99.88623047 342.75195312 C94.20990682 331.33384292 88.49754569 319.94653636 82.52026367 308.68261719 C78.01138303 300.1722538 73.74107314 291.54656893 69.46826172 282.91601562 C65.43976094 274.78677101 61.34203788 266.70439711 57.09375 258.6875 C51.45643058 248.0449621 46.10049331 237.26826034 40.75 226.47949219 C35.8180323 216.5423479 30.80219668 206.66269652 25.60690308 196.86042786 C21.30410602 188.72490638 17.22026221 180.48543347 13.16113281 172.22631836 C12.21774511 170.30925725 11.26932305 168.39475113 10.3203125 166.48046875 C9.77648926 165.37598389 9.23266602 164.27149902 8.67236328 163.13354492 C6.95546917 159.91656158 5.07025069 156.99709815 3 154 C-2.92130702 164.74504862 -8.83188063 175.47330061 -14.24609375 186.484375 C-16.73760759 191.47850073 -19.34982244 196.40640422 -21.95751953 201.34057617 C-25.32651701 207.71594036 -28.66864765 214.10488876 -32 220.5 C-35.58697162 227.38419578 -39.18773587 234.26063591 -42.8125 241.125 C-47.23067503 249.49845856 -51.5877537 257.90336474 -55.9375 266.3125 C-56.43148788 267.26712128 -56.43148788 267.26712128 -56.93545532 268.24102783 C-57.88329706 270.07316421 -58.83046506 271.905647 -59.77734375 273.73828125 C-60.32640381 274.80087158 -60.87546387 275.86346191 -61.44116211 276.95825195 C-62.98057772 279.96210146 -64.49050258 282.98100516 -66 286 C-33 286 0 286 34 286 C30.87444797 289.12555203 28.36748621 291.23956589 24.74609375 293.609375 C23.72580078 294.28226563 22.70550781 294.95515625 21.65429688 295.6484375 C20.59275391 296.34195312 19.53121094 297.03546875 18.4375 297.75 C11.39054102 302.36894134 4.45354396 307.07098502 -2.33569336 312.06201172 C-6.65555489 315.204233 -11.07672684 318.19348286 -15.5 321.1875 C-17.43760218 322.50375585 -19.37510041 323.82016473 -21.3125 325.13671875 C-22.27027344 325.78688965 -23.22804688 326.43706055 -24.21484375 327.10693359 C-28.31657973 329.89487721 -32.4085799 332.69694937 -36.5 335.5 C-44.18691869 340.76287512 -51.88075968 346.01553469 -59.58007812 351.26025391 C-64.3218181 354.49046028 -69.0604474 357.72504912 -73.79296875 360.96875 C-103.03884212 381 -103.03884212 381 -106 381 C-106 381.66 -106 382.32 -106 383 C-113.34670787 390.1656042 -120.92315472 390.8655216 -130.59599304 390.79307556 C-132.32833418 390.75734463 -134.06065937 390.72083292 -135.79296875 390.68359375 C-137.59326743 390.67051353 -139.39359129 390.66056083 -141.19392395 390.65357971 C-145.8979454 390.62704428 -150.60041745 390.55845136 -155.30383301 390.48065186 C-160.11705575 390.40862568 -164.93053257 390.3769847 -169.74414062 390.34179688 C-179.16343557 390.26706284 -188.5815882 390.14782937 -198 390 C-195.84928278 382.3105138 -195.84928278 382.3105138 -194.109375 379.14453125 C-193.55056641 378.1090918 -193.55056641 378.1090918 -192.98046875 377.05273438 C-192.57441406 376.31345703 -192.16835937 375.57417969 -191.75 374.8125 C-187.34043997 366.61861606 -183.13736038 358.334225 -179 350 C-174.32418649 340.59678082 -169.55594293 331.25276613 -164.6328125 321.9765625 C-161.34280957 315.77468834 -158.10906947 309.54367454 -154.875 303.3125 C-154.03195313 301.69202759 -154.03195313 301.69202759 -153.171875 300.03881836 C-148.6921197 291.40291799 -144.33406092 282.7095426 -140 274 C-120.85338593 235.55095051 -120.85338593 235.55095051 -114.85595703 224.35620117 C-109.98405495 215.19715034 -105.42402054 205.87731739 -100.80075073 196.59124756 C-96.08175021 187.11644646 -91.32526044 177.67236332 -86.34375 168.33203125 C-83.02824469 162.10394661 -79.88366882 155.79672405 -76.74804688 149.4765625 C-73.51420416 142.97851235 -70.15224573 136.55563806 -66.75 130.14453125 C-63.74878427 124.47035775 -60.85277238 118.75008454 -58 113 C-54.83426979 106.61942041 -51.59509647 100.28834694 -48.25 94 C-44.03297251 86.06604123 -39.99994601 78.04491956 -36 70 C-31.62006962 61.19083421 -27.16994294 52.42829689 -22.54907227 43.74267578 C-19.15390275 37.34379134 -15.91971322 30.87072867 -12.70068359 24.38183594 C-8.61653476 16.17456428 -4.33223532 8.0784678 0 0 Z " fill="#2097F7" transform="translate(356,435)"/>
<path d="M0 0 C26.23559152 -0.07030144 52.47116877 -0.12309124 78.70683575 -0.15543652 C90.89044545 -0.17085889 103.07399639 -0.19185918 115.25756836 -0.22631836 C125.88551892 -0.25636322 136.5134269 -0.27560858 147.14141876 -0.28226548 C152.76089971 -0.28615235 158.38025889 -0.29518881 163.99970055 -0.31719017 C169.3061264 -0.33779454 174.61238216 -0.34378626 179.91884422 -0.33932304 C181.84993927 -0.34013767 183.78104096 -0.34595887 185.71210098 -0.35761642 C220.80440695 -0.55878635 255.25538796 7.88697033 286 25 C286.63196289 25.35030273 287.26392578 25.70060547 287.91503906 26.06152344 C301.42264137 33.64294621 313.28192994 42.83727951 324.46875 53.53613281 C325.50568341 54.52743586 326.54751769 55.51363333 327.59375 56.49511719 C360.03485356 87.00613105 381.50736498 133.46978685 383.07373047 178.10083008 C383.67644242 199.56961092 384.15796517 221.01812082 379 242 C378.76974121 242.9576123 378.53948242 243.91522461 378.30224609 244.90185547 C376.72632297 251.32921193 374.95467048 257.6779679 373 264 C372.64550781 265.15113281 372.29101562 266.30226563 371.92578125 267.48828125 C362.29396949 295.09470083 341.19992454 327.65473389 317 345 C316.01 345.33 315.02 345.66 314 346 C314 346.66 314 347.32 314 348 C312.69335938 349.18579102 312.69335938 349.18579102 310.84375 350.50390625 C310.15877441 350.99294434 309.47379883 351.48198242 308.76806641 351.98583984 C308.01960449 352.5061377 307.27114258 353.02643555 306.5 353.5625 C305.73478027 354.0982666 304.96956055 354.6340332 304.18115234 355.18603516 C297.27201688 359.94875336 290.11924901 364.10238539 282.72509766 368.05664062 C281.22466395 368.87714386 279.75546378 369.75426437 278.29296875 370.640625 C261.87586984 380.46503065 236.74905958 388.38478921 217.53515625 387.078125 C214.91517844 386.91592481 214.91517844 386.91592481 212.02685547 387.48901367 C207.04161345 388.22876996 202.06450689 388.12382512 197.03515625 388.09765625 C196.00184677 388.0962413 194.96853729 388.09482635 193.90391541 388.09336853 C190.6234134 388.08779839 187.34298117 388.07525141 184.0625 388.0625 C181.83007911 388.05748114 179.59765715 388.05291891 177.36523438 388.04882812 C171.91013269 388.03783875 166.45507133 388.0211305 161 388 C159 384 157 380 155 376 C154.55760986 375.11530029 154.11521973 374.23060059 153.65942383 373.3190918 C152.89225575 371.78458489 152.1256161 370.24981374 151.359375 368.71484375 C150.31129224 366.62168996 149.25825262 364.53101768 148.203125 362.44140625 C147.73410767 361.51013916 147.73410767 361.51013916 147.25561523 360.56005859 C146.35529159 358.77246285 145.45308325 356.98581672 144.55078125 355.19921875 C143 352 143 352 141.98046875 349.3984375 C140.88710316 346.72383005 139.51869445 344.39398827 138 341.9375 C133.21985343 334.18171219 133.21985343 334.18171219 132.5 330.3125 C132.335 329.549375 132.17 328.78625 132 328 C131.34 327.67 130.68 327.34 130 327 C126 320.76470588 126 320.76470588 126 316 C132.22407427 314.85369017 138.21340535 314.99146152 144.5234375 315.19140625 C146.78384688 315.24963246 149.04426381 315.30756611 151.3046875 315.36523438 C154.84193955 315.46218237 158.37902527 315.56262072 161.91601562 315.66870117 C165.34747103 315.76930303 168.7790716 315.8561354 172.2109375 315.94140625 C173.25808929 315.97673965 174.30524109 316.01207306 175.38412476 316.04847717 C181.60407936 316.19434417 186.99590851 315.5686723 193 314 C194.98667202 313.63607556 196.97608467 313.28656364 198.96875 312.95703125 C212.07247188 310.69153712 224.09971121 308.023913 236 302 C236.6069873 301.69723145 237.21397461 301.39446289 237.83935547 301.08251953 C265.7836466 286.86577675 284.31681678 263.26894798 294.16088867 233.82006836 C298.18708194 221.41565199 299.31716175 209.32644508 299.1875 196.3125 C299.18685547 195.07177734 299.18621094 193.83105469 299.18554688 192.55273438 C299.12358047 179.5466743 298.45819002 166.96603196 293 155 C292.4554147 153.3551301 291.91409124 151.70917871 291.375 150.0625 C286.0318067 135.29253221 277.07865108 122.98930712 266 112 C265.484375 111.43796875 264.96875 110.8759375 264.4375 110.296875 C245.62151373 90.0492376 216.24804156 80.22568752 189.28610611 78.8041954 C185.31214391 78.7172424 181.34039335 78.68687301 177.36572266 78.68115234 C175.85628234 78.67182665 174.34684706 78.66165419 172.8374176 78.65071106 C168.78673351 78.62369412 164.73608361 78.60834693 160.68533373 78.59528303 C156.43458214 78.57952688 152.18389915 78.55277732 147.93319702 78.5272522 C139.90488955 78.48068339 131.87656885 78.44383416 123.84819639 78.41057932 C114.69927275 78.37220206 105.55041839 78.32283342 96.40155339 78.27259517 C77.60108648 78.1696015 58.80057713 78.08023644 40 78 C39.72194519 77.44159927 39.44389038 76.88319855 39.15740967 76.30787659 C37.87152943 73.7269046 36.58420935 71.14665324 35.296875 68.56640625 C34.85972168 67.68843384 34.42256836 66.81046143 33.97216797 65.90588379 C31.13079467 60.21394606 28.22594813 54.56021575 25.25 48.9375 C24.80205078 48.08978027 24.35410156 47.24206055 23.89257812 46.36865234 C23.52583984 45.67723145 23.15910156 44.98581055 22.78125 44.2734375 C19.71621022 38.47562995 16.69031825 32.65755411 13.67028809 26.83621216 C12.77992514 25.12017605 11.88851586 23.40468295 10.99707031 21.68920898 C10.43600586 20.60712158 9.87494141 19.52503418 9.296875 18.41015625 C8.80541992 17.46277588 8.31396484 16.51539551 7.80761719 15.53930664 C6.15017597 12.29404389 4.51559527 9.03861296 2.88702393 5.77879333 C2.07617781 4.1560734 2.07617781 4.1560734 1.24895096 2.50057125 C0.83679714 1.67538274 0.42464333 0.85019423 0 0 Z " fill="#2DACF6" transform="translate(404,436)"/>
<path d="M0 0 C0 128.7 0 257.4 0 390 C-25.41 390 -50.82 390 -77 390 C-77 323.67 -77 257.34 -77 189 C-83.78774443 194.93826456 -83.78774443 194.93826456 -90.26300049 201.14274597 C-90.73253859 201.61142965 -91.2020767 202.08011333 -91.68584323 202.56299955 C-93.22946029 204.10499392 -94.7695198 205.65048917 -96.30957031 207.19604492 C-97.42718362 208.31394084 -98.54501823 209.43161554 -99.66305542 210.54908752 C-102.67739328 213.56314016 -105.68865173 216.58025204 -108.69934177 219.59794784 C-111.85868902 222.76358035 -115.02090099 225.92634867 -118.18280029 229.08943176 C-124.16507737 235.07480922 -130.14480311 241.06272881 -136.12360072 247.05158168 C-142.91777696 253.85693748 -149.71479306 260.65945386 -156.51205301 267.46172941 C-168.12910342 279.08745087 -179.74403667 290.71528396 -191.3565979 302.3454895 C-191.8464507 302.83608189 -192.3363035 303.32667429 -192.84100032 303.83213311 C-194.14394538 305.13706246 -195.44686138 306.44202082 -196.74977493 307.74698162 C-198.83235699 309.83214889 -200.91586763 311.91638238 -203 314 C-207.17019671 312.31172312 -210.21378981 309.3226184 -213.484375 306.32983398 C-214.12536636 305.7485675 -214.76635773 305.16730103 -215.42677307 304.56842041 C-221.34993019 299.16938472 -227.17094727 293.6623243 -232.96061707 288.12069607 C-236.84317867 284.40802559 -240.75188853 280.73836526 -244.75048828 277.15063477 C-272.31864951 252.34724341 -272.31864951 252.34724341 -273.13818359 240.28947926 C-273.08527377 232.49065102 -271.14786073 225.29025455 -268.93228149 217.85310364 C-267.3146138 211.16731043 -267.42420184 204.54559121 -267.5 197.6875 C-267.50978127 196.62494303 -267.50978127 196.62494303 -267.51976013 195.54092026 C-267.72944655 175.00465671 -269.98935276 154.13960275 -274 134 C-273.34 134 -272.68 134 -272 134 C-270.7462616 135.26756287 -270.7462616 135.26756287 -269.21557617 137.14233398 C-263.66703146 143.65976145 -257.57607888 149.65028659 -251.55078125 155.72265625 C-250.91127218 156.36748899 -250.27176311 157.01232174 -249.61287498 157.67669487 C-246.23981244 161.07629823 -242.86321397 164.47234828 -239.48413086 167.8659668 C-236.69063522 170.67289428 -233.90462593 173.48695172 -231.12475586 176.30737305 C-227.75606171 179.72518193 -224.37544617 183.13074231 -220.98567772 186.52764702 C-219.69799108 187.82206377 -218.41457694 189.12074519 -217.13552284 190.4236927 C-215.35481728 192.23580387 -213.55921478 194.03172818 -211.7590332 195.82446289 C-211.23271805 196.36718338 -210.70640289 196.90990387 -210.16413879 197.46907043 C-208.54783894 199.11604899 -208.54783894 199.11604899 -206 201 C-201.26595316 200.50457937 -198.63837651 197.04154061 -195.46063232 193.81466675 C-194.80540722 193.16129935 -194.15018212 192.50793196 -193.47510171 191.83476555 C-191.27405764 189.636328 -189.08393027 187.42732508 -186.89355469 185.21826172 C-185.32040975 183.64263422 -183.74659684 182.0676734 -182.17216492 180.49333191 C-178.77870464 177.09716219 -175.390067 173.69627661 -172.00505829 170.2916832 C-166.64989778 164.90554412 -161.28442533 159.52975805 -155.9175415 154.15530396 C-148.39073807 146.61564467 -140.86883945 139.07112957 -133.35107422 131.52246094 C-125.62637325 123.76604679 -117.89999354 116.01131454 -110.17041016 108.25976562 C-109.69507799 107.78307988 -109.21974582 107.30639414 -108.73000965 106.81526338 C-100.78976433 98.85261713 -92.84740591 90.89207991 -84.9043324 82.93225491 C-79.57470003 77.59080911 -74.24826657 72.24619943 -68.92449999 66.89890742 C-65.60527039 63.56580902 -62.28401934 60.23473003 -58.96232033 56.90409279 C-57.42638774 55.36310866 -55.89133686 53.82124511 -54.35725212 52.2784214 C-52.25627792 50.16567642 -50.15216025 48.05610981 -48.04730225 45.94723511 C-47.44689078 45.34186444 -46.84647932 44.73649378 -46.22787356 44.11277854 C-42.52206461 40.40787913 -38.68451417 36.90799599 -34.71417207 33.48785359 C-32.79014962 31.81785571 -30.96292101 30.07771877 -29.17016602 28.26782227 C-28.21491783 27.30761925 -28.21491783 27.30761925 -27.2403717 26.32801819 C-26.5848381 25.66418625 -25.9293045 25.00035431 -25.25390625 24.31640625 C-24.55732407 23.61603745 -23.86074188 22.91566864 -23.14305115 22.19407654 C-20.94705973 19.98599203 -18.75438512 17.77466024 -16.5625 15.5625 C-13.64996576 12.62347384 -10.73419737 9.68771245 -7.81640625 6.75390625 C-7.14670303 6.07590469 -6.47699982 5.39790314 -5.78700256 4.69935608 C-5.17223557 4.08128586 -4.55746857 3.46321564 -3.92407227 2.82641602 C-3.38194595 2.27905289 -2.83981964 1.73168976 -2.28126526 1.16773987 C-1 0 -1 0 0 0 Z " fill="#26A1F7" transform="translate(1079,435)"/>
<path d="M0 0 C0 67.98 0 135.96 0 206 C-0.33 206 -0.66 206 -1 206 C-1.17473995 189.79174637 -1.34000582 173.58340567 -1.5 157.375 C-1.51202454 156.16513805 -1.52404907 154.95527611 -1.53643799 153.70875168 C-1.80660838 126.42440805 -2.04590144 99.14134838 -2.03125 71.85546875 C-2.03048714 70.34356083 -2.03048714 70.34356083 -2.02970886 68.80110931 C-2.02338846 59.2785619 -2.0058006 49.75609311 -1.97194672 40.23360348 C-1.96034709 36.79164348 -1.95222178 33.34967988 -1.94456482 29.90770912 C-1.93771925 27.5785076 -1.92515036 25.24938621 -1.91223145 22.92021179 C-1.90864856 21.52957224 -1.90533539 20.13893196 -1.90234375 18.74829102 C-1.89710693 17.55736343 -1.89187012 16.36643585 -1.88647461 15.13941956 C-1.98920214 12.29860286 -2.34422456 9.75939072 -3 7 C-6.37088267 9.27415287 -6.37088267 9.27415287 -8 13 C-9.34233404 13.86047054 -10.68660125 14.71803639 -12.0390625 15.5625 C-16.99037772 19.1921494 -23.03411 24.10232999 -25 30 C-26.1446875 30.680625 -26.1446875 30.680625 -27.3125 31.375 C-30.12962842 32.86736073 -30.12962842 32.86736073 -32 35.5 C-34.10809077 38.13511346 -36.03904214 39.43727224 -39 41 C-38.42081405 37.38165688 -37.07938129 35.70854766 -34.50585938 33.14941406 C-33.76839478 32.40894836 -33.03093018 31.66848267 -32.27111816 30.90557861 C-31.47008667 30.11689392 -30.66905518 29.32820923 -29.84375 28.515625 C-29.02628296 27.70003113 -28.20881592 26.88443726 -27.36657715 26.04412842 C-25.63834227 24.32261514 -23.90651377 22.60470311 -22.17138672 20.89013672 C-19.50356592 18.25352421 -16.84661398 15.60633961 -14.19140625 12.95703125 C-12.51364362 11.28843606 -10.83527876 9.62044614 -9.15625 7.953125 C-8.35521851 7.15634338 -7.55418701 6.35956177 -6.72888184 5.53863525 C-5.99141724 4.8107782 -5.25395264 4.08292114 -4.49414062 3.33300781 C-3.84207642 2.68777161 -3.19001221 2.0425354 -2.51818848 1.37774658 C-1 0 -1 0 0 0 Z M-42 42 C-40 43 -40 43 -40 43 Z " fill="#43DBF9" transform="translate(1078,436)"/>
<path d="M0 0 C62.7 0 125.4 0 190 0 C187.56515352 2.43484648 186.28773029 2.23456366 182.96614367 2.24883842 C182.26197217 2.2416485 181.55780068 2.23445858 180.83229065 2.22705078 C180.08540842 2.2273485 179.33852618 2.22764622 178.56901115 2.22795296 C176.05313744 2.22655816 173.53755176 2.21084785 171.02172852 2.1953125 C169.22337 2.19147629 167.42500935 2.18854768 165.62664795 2.1864624 C161.7475193 2.1801284 157.86847714 2.16757336 153.98938179 2.15032959 C147.8597032 2.12335761 141.73005373 2.11151192 135.60032654 2.10205078 C121.48029435 2.07792564 107.36033739 2.03382383 93.24035645 1.98959351 C80.30489761 1.94927427 67.36946397 1.9131233 54.43395561 1.89316368 C48.33650809 1.88317699 42.23919246 1.86342481 36.14179814 1.83630371 C32.35260122 1.82141799 28.56342266 1.81475986 24.77420044 1.8103714 C23.01292265 1.80661712 21.25164844 1.79939494 19.49040031 1.78850555 C17.09174541 1.77413883 14.69338341 1.77199506 12.29469299 1.77294922 C11.59275222 1.7657593 10.89081144 1.75856937 10.16759974 1.75116158 C6.53822353 1.76669575 5.11396195 1.92402537 2 4 C1.34 2.68 0.68 1.36 0 0 Z " fill="#49DAF0" transform="translate(404,436)"/>
<path d="M0 0 C1.65 0 3.3 0 5 0 C4.41734375 0.49757813 3.8346875 0.99515625 3.234375 1.5078125 C0.38526652 4.68566427 -1.04866622 7.99476505 -2.75 11.875 C-5.31661479 17.5423088 -8.02603472 23.01585741 -11.1875 28.375 C-14.05955523 33.27372968 -16.52702862 38.18252557 -18.8046875 43.37890625 C-20.44504222 46.97589323 -22.34778867 50.40039762 -24.265625 53.85546875 C-31.31965308 66.64486651 -38.24577194 79.56994535 -44.0625 92.97265625 C-44.98656638 94.9709498 -46.01379762 96.85033417 -47.125 98.75 C-48.69617824 101.47337561 -49.92881017 104.05422797 -51 107 C-51.66 106.67 -52.32 106.34 -53 106 C-52.41673633 102.50944114 -51.52072214 99.6696214 -49.93383789 96.51123047 C-49.50571304 95.65197968 -49.0775882 94.79272888 -48.63648987 93.90744019 C-48.16992477 92.9866568 -47.70335968 92.06587341 -47.22265625 91.1171875 C-46.7372789 90.14830597 -46.25190155 89.17942444 -45.7518158 88.18118286 C-44.71975055 86.12377559 -43.68480778 84.06780966 -42.6472168 82.01318359 C-41.09408663 78.93755039 -39.54912878 75.85793451 -38.00585938 72.77734375 C-32.87478086 62.5560753 -27.66095961 52.38460818 -22.30899048 42.27723694 C-19.42739928 36.83203418 -16.64380267 31.3470658 -13.9375 25.8125 C-9.59723531 17.02742792 -4.90401538 8.4813406 0 0 Z " fill="#3CCCE8" transform="translate(356,436)"/>
<path d="M0 0 C0.66 0 1.32 0 2 0 C2.350625 0.9075 2.70125 1.815 3.0625 2.75 C4.51584269 6.15245181 6.29043062 9.26272407 8.1875 12.4375 C14.23713263 22.65664687 19.36336467 33.21534575 23.76953125 44.23828125 C25.46002718 48.03250545 27.59798913 51.46643673 29.86328125 54.94140625 C31 57 31 57 31 60 C31.58215775 59.9830307 32.16431549 59.9660614 32.76411438 59.94857788 C38.81437565 59.77424726 44.86489534 59.61434965 50.91577148 59.46289062 C53.17498531 59.40443328 55.43410652 59.34227601 57.69311523 59.27636719 C60.93716572 59.18235738 64.18131482 59.10158786 67.42578125 59.0234375 C68.43836502 58.99124115 69.45094879 58.9590448 70.49421692 58.9258728 C71.90534004 58.89561508 71.90534004 58.89561508 73.3449707 58.86474609 C74.58740288 58.83143692 74.58740288 58.83143692 75.85493469 58.79745483 C78 59 78 59 81 61 C36.45 61 -8.1 61 -54 61 C-54.66 59.35 -55.32 57.7 -56 56 C-55.66727585 56.48608231 -55.3345517 56.97216461 -54.991745 57.47297668 C-51.96266511 59.79529988 -48.79936652 59.43933476 -45.13208008 59.43237305 C-44.33184921 59.4425647 -43.53161835 59.45275635 -42.70713806 59.46325684 C-40.06119858 59.49345931 -37.41562068 59.5026637 -34.76953125 59.51171875 C-32.93534637 59.52856009 -31.10117308 59.54670958 -29.26701355 59.56611633 C-24.4386863 59.61368179 -19.61040599 59.64344875 -14.78192139 59.66955566 C-9.85517097 59.69932822 -4.92858241 59.74586986 -0.00195312 59.79101562 C9.66528003 59.87712317 19.33254644 59.94443526 29 60 C24.68144715 51.33154052 20.35196004 42.67210307 15.87890625 34.08203125 C14.99773366 32.37971938 14.11688269 30.67724101 13.23632812 28.97460938 C11.88755556 26.36843511 10.53687857 23.76332623 9.1809082 21.16088867 C7.84536123 18.59585077 6.51771797 16.02685383 5.19140625 13.45703125 C4.78418839 12.67995316 4.37697052 11.90287506 3.95741272 11.10224915 C2.06368761 7.41717828 0.50380899 4.17257193 0 0 Z " fill="#0349BB" transform="translate(534,764)"/>
<path d="M0 0 C0 3.64147687 -1.23980954 4.91042368 -3.5703125 7.58984375 C-5.48242646 9.47583593 -7.69377861 10.63992072 -10 12 C-11.35386936 13.65002828 -12.68678142 15.3174387 -14 17 C-15.65002828 18.35386936 -17.3174387 19.68678142 -19 21 C-21.82004321 23.67542561 -24.39539153 26.4514463 -26.875 29.4375 C-29.45937469 32.50021653 -32.25557416 35.04499095 -35.33984375 37.59375 C-36.83625957 38.86130223 -38.23828645 40.23828645 -39.625 41.625 C-42 44 -42 44 -44.40234375 45.83984375 C-47.02628814 48.02186066 -48.88885596 50.21854299 -50.9375 52.9375 C-54.03735236 56.91137089 -57.03794664 59.91840294 -61 63 C-63.64433708 65.51534502 -65.99947305 67.99932668 -68.25 70.875 C-71.549869 74.94943632 -75.80309671 77.90946991 -80 81 C-80.66 80.67 -81.32 80.34 -82 80 C-71.75757403 69.7108783 -61.50937845 59.42753442 -51.25447369 49.15084934 C-46.49317654 44.37923431 -41.73377199 39.60575965 -36.97875977 34.82788086 C-32.3927197 30.21979732 -27.80148651 25.61692834 -23.20701027 21.01725578 C-21.45212819 19.25866902 -19.69901173 17.4983186 -17.94766808 15.73620796 C-15.5005602 13.27465133 -13.04733537 10.81935468 -10.5925293 8.36547852 C-9.86460678 7.63036545 -9.13668427 6.89525238 -8.38670349 6.13786316 C-7.38344025 5.13872391 -7.38344025 5.13872391 -6.35990906 4.11940002 C-5.49019738 3.24692297 -5.49019738 3.24692297 -4.60291576 2.35682011 C-3 1 -3 1 0 0 Z " fill="#39BBDF" transform="translate(1033,481)"/>
<path d="M0 0 C0.99 0.495 0.99 0.495 2 1 C2 1.66 2 2.32 2 3 C47.87 3 93.74 3 141 3 C141.33 3.66 141.66 4.32 142 5 C95.47 5 48.94 5 1 5 C0.67 3.35 0.34 1.7 0 0 Z " fill="#46D6F9" transform="translate(443,508)"/>
<path d="M0 0 C0 3 0 3 -1 5 C32 5 65 5 99 5 C95.54602565 8.45397435 94.30872286 9.56375905 90 11 C89.505 9.515 89.505 9.515 89 8 C87.87469376 7.98969254 86.74938751 7.97938507 85.58998108 7.96876526 C75.00932836 7.87120809 64.42873679 7.76849127 53.84818363 7.66066074 C48.40800614 7.60538531 42.96782332 7.55195806 37.52758789 7.50268555 C32.28209524 7.45510998 27.0366702 7.40276991 21.79125786 7.34705925 C19.78530996 7.32660474 17.77934351 7.30789691 15.77336311 7.29092598 C12.97392151 7.26695023 10.17460897 7.23688675 7.37524414 7.20532227 C6.53727295 7.1995668 5.69930176 7.19381134 4.8359375 7.18788147 C-0.88594784 7.11405216 -0.88594784 7.11405216 -2 6 C-2.04063832 4.33382885 -2.042721 2.66611905 -2 1 C-1.34 0.67 -0.68 0.34 0 0 Z " fill="#1387F0" transform="translate(291,716)"/>
<path d="M0 0 C3.63432497 0.03981399 7.25535158 0.43563847 10.875 0.75 C12.37546875 0.86214844 12.37546875 0.86214844 13.90625 0.9765625 C20.87729661 1.57099283 27.31864632 2.93380579 34 5 C34 5.33 34 5.66 34 6 C28.71036245 6.18240129 23.8660276 5.87643918 18.64120483 5.01211548 C10.86543567 3.87077978 3.21107151 3.692444 -4.63427734 3.68115234 C-6.14371766 3.67182665 -7.65315294 3.66165419 -9.1625824 3.65071106 C-13.21326649 3.62369412 -17.26391639 3.60834693 -21.31466627 3.59528303 C-25.56541786 3.57952688 -29.81610085 3.55277732 -34.06680298 3.5272522 C-42.09511045 3.48068339 -50.12343115 3.44383416 -58.15180361 3.41057932 C-67.30072725 3.37220206 -76.44958161 3.32283342 -85.59844661 3.27259517 C-104.39891352 3.1696015 -123.19942287 3.08023644 -142 3 C-142 2.67 -142 2.34 -142 2 C-140.91136831 1.99365209 -140.91136831 1.99365209 -139.80074406 1.98717594 C-122.16694511 1.8840115 -104.53318826 1.77539537 -86.89946079 1.66066074 C-78.37203423 1.60530907 -69.84460349 1.55182394 -61.31713867 1.50268555 C-53.88731118 1.45986746 -46.45751475 1.41359557 -39.02773517 1.36312145 C-35.09128504 1.3365013 -31.15484115 1.31164784 -27.21835518 1.29092598 C-23.51743655 1.2713897 -19.81657712 1.24725516 -16.11571121 1.21950912 C-14.10131571 1.20562843 -12.08688802 1.1966991 -10.07246399 1.18788147 C-8.8846936 1.17809265 -7.69692322 1.16830383 -6.47315979 1.15821838 C-5.4342991 1.15176583 -4.3954384 1.14531328 -3.32509708 1.1386652 C-1.03921798 1.2604702 -1.03921798 1.2604702 0 0 Z " fill="#38BADE" transform="translate(586,511)"/>
<path d="M0 0 C1 3 1 3 -0.546875 6.546875 C-1.27129001 7.95309237 -2.00613267 9.35397501 -2.75 10.75 C-3.47591332 12.13960549 -4.1998907 13.5302241 -4.921875 14.921875 C-5.27572266 15.59927734 -5.62957031 16.27667969 -5.99414062 16.97460938 C-6.96986066 18.93931167 -7.81654038 20.92093648 -8.640625 22.953125 C-10 26 -10 26 -12 27 C-12 27.66 -12 28.32 -12 29 C-11.08744949 28.92649826 -10.17489899 28.85299652 -9.23469543 28.77726746 C-0.23341975 28.10679779 8.64546951 27.93965436 17.67578125 28.11328125 C20.40685469 28.1481824 23.13800029 28.17594304 25.86914062 28.20507812 C30.1066231 28.25291644 34.34345474 28.31031325 38.58032227 28.39770508 C42.05358773 28.46845871 45.52611475 28.50902051 49.00002098 28.53032494 C50.93332028 28.55021578 52.86621346 28.60171258 54.79890442 28.65412903 C62.28722537 28.6772506 66.92452177 27.66864322 73.01213074 23.19548035 C73.99612602 22.60371758 73.99612602 22.60371758 75 22 C76.485 22.495 76.485 22.495 78 23 C68.55845925 31.15237349 59.99537088 30.93700573 48.20703125 30.68359375 C46.40673257 30.67051353 44.60640871 30.66056083 42.80607605 30.65357971 C38.1020546 30.62704428 33.39958255 30.55845136 28.69616699 30.48065186 C23.88294425 30.40862568 19.06946743 30.3769847 14.25585938 30.34179688 C4.83656443 30.26706284 -4.5815882 30.14782937 -14 30 C-12.84939071 25.86302596 -11.7280518 22.08485827 -9.6875 18.30078125 C-9.25179687 17.48416016 -8.81609375 16.66753906 -8.3671875 15.82617188 C-7.91601562 14.99666016 -7.46484375 14.16714844 -7 13.3125 C-6.1039652 11.64203513 -5.2081248 9.97146597 -4.3125 8.30078125 C-3.91675781 7.57028564 -3.52101562 6.83979004 -3.11328125 6.0871582 C-2.03975005 4.07452262 -1.01048293 2.04490139 0 0 Z " fill="#0351CE" transform="translate(172,795)"/>
<path d="M0 0 C23.43 0.33 46.86 0.66 71 1 C71 1.33 71 1.66 71 2 C62.48774348 3.72671158 54.46494218 4.22112883 45.796875 3.9765625 C44.5930719 3.95153656 43.3892688 3.92651062 42.14898682 3.90072632 C38.3490026 3.81933736 34.54960305 3.72243809 30.75 3.625 C28.15497088 3.56667746 25.5599186 3.50937615 22.96484375 3.453125 C16.64291348 3.31388066 10.32138745 3.16194146 4 3 C4.33 4.98 4.66 6.96 5 9 C1.56984539 6.19350987 1.5990235 4.79707049 0 0 Z " fill="#084598" transform="translate(526,749)"/>
<path d="M0 0 C0.66 0 1.32 0 2 0 C1.40485404 4.5455351 -0.48609979 8.11722562 -2.6875 12.0625 C-3.41655084 13.39909321 -4.14440162 14.73634166 -4.87109375 16.07421875 C-5.23187012 16.73599121 -5.59264648 17.39776367 -5.96435547 18.07958984 C-9.6435474 24.90196696 -12.9778063 31.86500785 -16.0625 38.97265625 C-16.98656638 40.9709498 -18.01379762 42.85033417 -19.125 44.75 C-20.69617824 47.47337561 -21.92881017 50.05422797 -23 53 C-23.66 52.67 -24.32 52.34 -25 52 C-24.40682702 48.39184783 -23.42994862 45.48863883 -21.79101562 42.22558594 C-21.10525452 40.84956207 -21.10525452 40.84956207 -20.40563965 39.44573975 C-19.91084106 38.46848938 -19.41604248 37.49123901 -18.90625 36.484375 C-18.39952759 35.47280334 -17.89280518 34.46123169 -17.37072754 33.41900635 C-16.30090111 31.28606616 -15.22820125 29.15456511 -14.15283203 27.02441406 C-12.50058111 23.75115123 -10.85696763 20.47366571 -9.21484375 17.1953125 C-8.17497873 15.12474904 -7.13463087 13.05442798 -6.09375 10.984375 C-5.59895142 9.99902771 -5.10415283 9.01368042 -4.59436035 7.99847412 C-4.13718628 7.09373352 -3.68001221 6.18899292 -3.20898438 5.25683594 C-2.80562866 4.45695251 -2.40227295 3.65706909 -1.98669434 2.83294678 C-1 1 -1 1 0 0 Z " fill="#3ABFE2" transform="translate(328,490)"/>
<path d="M0 0 C0.33 0 0.66 0 1 0 C2.34453736 19.26936177 3.10664539 36.6369055 -4 55 C-4.25330078 55.6919043 -4.50660156 56.38380859 -4.76757812 57.09667969 C-5.515625 59.0234375 -5.515625 59.0234375 -7 62 C-8.485 62.495 -8.485 62.495 -10 63 C-9.58402437 61.60396057 -9.16715317 60.20818801 -8.75 58.8125 C-8.47800781 57.89726563 -8.20601562 56.98203125 -7.92578125 56.0390625 C-7.30009408 53.98511897 -6.65096751 51.93819235 -5.98046875 49.8984375 C-5.63628906 48.83882812 -5.29210937 47.77921875 -4.9375 46.6875 C-4.45603516 45.23923828 -4.45603516 45.23923828 -3.96484375 43.76171875 C-1.33599322 33.51239462 -0.6516494 23.22899499 -0.375 12.6875 C-0.33632813 11.45837891 -0.29765625 10.22925781 -0.2578125 8.96289062 C-0.1648166 5.97539746 -0.07897509 2.98789095 0 0 Z " fill="#1981C7" transform="translate(704,620)"/>
<path d="M0 0 C1.13376498 3.41631171 1.01749065 3.95665361 -0.4375 7.5625 C-3.90855993 14.01915693 -8.37986262 21.20775821 -14 26 C-14.66 26 -15.32 26 -16 26 C-16.08378906 26.58265625 -16.16757812 27.1653125 -16.25390625 27.765625 C-17.21726696 30.65066337 -18.62979704 31.79700726 -20.9375 33.75 C-21.64777344 34.36359375 -22.35804688 34.9771875 -23.08984375 35.609375 C-25 37 -25 37 -27 37 C-27.33 37.99 -27.66 38.98 -28 40 C-28.99 39.67 -29.98 39.34 -31 39 C-29.76636719 37.92685547 -29.76636719 37.92685547 -28.5078125 36.83203125 C-16.30213583 26.02050185 -7.6904608 14.32831663 0 0 Z " fill="#1381E5" transform="translate(692,686)"/>
<path d="M0 0 C0.66 0.99 1.32 1.98 2 3 C1.3125 5.3125 1.3125 5.3125 0 8 C-0.45375 8.94875 -0.9075 9.8975 -1.375 10.875 C-2.85998511 13.7307406 -4.42847073 16.51164111 -6.0390625 19.296875 C-6.86274709 20.75673875 -7.62537897 22.25075793 -8.375 23.75 C-9.8924432 26.7848864 -11.42543115 29.8068575 -13 32.8125 C-13.495 33.76769531 -13.99 34.72289062 -14.5 35.70703125 C-16 38 -16 38 -19 39 C-17.31799452 34.53621623 -15.22845365 30.32866414 -13.0859375 26.07421875 C-12.71143463 25.32662796 -12.33693176 24.57903717 -11.95108032 23.80879211 C-10.76093681 21.43407812 -9.56801116 19.06077442 -8.375 16.6875 C-7.5649198 15.07235808 -6.75502195 13.45712469 -5.9453125 11.84179688 C-3.96565185 7.89346881 -1.98349578 3.94640273 0 0 Z " fill="#2AA8E2" transform="translate(281,581)"/>
<path d="M0 0 C3 1 3 1 4.76171875 4 C5.41428437 5.32815898 6.0554537 6.66195455 6.6875 8 C7.03055176 8.70608398 7.37360352 9.41216797 7.72705078 10.13964844 C8.8304518 12.42071303 9.91713468 14.70912127 11 17 C11.36915527 17.77794922 11.73831055 18.55589844 12.11865234 19.35742188 C13.86919712 23.05071003 15.60921813 26.74863998 17.3359375 30.453125 C18.25360044 32.40908263 19.18339304 34.36001654 20.1640625 36.28515625 C21 38 21 38 22 41.1875 C22.67987492 44.12865478 22.67987492 44.12865478 25 45 C25 45.66 25 46.32 25 47 C24.34 47 23.68 47 23 47 C22.75610031 46.50998001 22.51220062 46.01996002 22.26091003 45.51509094 C19.71633769 40.40378028 17.16892354 35.29389326 14.61987305 30.18481445 C13.66960236 28.27925205 12.72005081 26.37333085 11.77124023 24.46704102 C10.40538534 21.72316803 9.03692848 18.98060624 7.66796875 16.23828125 C7.24597702 15.38913651 6.82398529 14.53999176 6.38920593 13.66511536 C4.74986286 10.38611981 3.11133894 7.18346121 1.20825195 4.04760742 C0 2 0 2 0 0 Z " fill="#2EB5F3" transform="translate(360,588)"/>
<path d="M0 0 C4.17097414 1.37985378 6.62998246 3.24482598 9.73046875 6.33203125 C10.61202637 7.20738525 11.49358398 8.08273926 12.40185547 8.98461914 C13.32111816 9.91781982 14.24038086 10.85102051 15.1875 11.8125 C15.65577209 12.28509247 16.12404419 12.75768494 16.60650635 13.24459839 C32.23081623 29.03899297 32.23081623 29.03899297 36 36 C35.7265625 38.33984375 35.7265625 38.33984375 35 40 C34.34 38.35 33.68 36.7 33 35 C32.34 35 31.68 35 31 35 C29.98359315 33.34328792 28.98811258 31.67374171 28 30 C26.22908491 27.69888803 24.33844125 25.50675172 22.4375 23.3125 C21.90882324 22.69963135 21.38014648 22.0867627 20.83544922 21.45532227 C14.39727815 14.06445632 7.60122888 7.20100251 0 1 C0 0.67 0 0.34 0 0 Z " fill="#35C1E4" transform="translate(717,481)"/>
<path d="M0 0 C2.13671875 0.40307617 2.13671875 0.40307617 4 1 C3.21987549 1.52843506 2.43975098 2.05687012 1.63598633 2.60131836 C-1.32595659 4.60812059 -4.28749366 6.61551913 -7.2487793 8.62329102 C-8.51782902 9.48354724 -9.78702893 10.34358197 -11.05639648 11.20336914 C-19.73973061 17.08518366 -28.38862937 23.01321947 -37 29 C-37 28.01 -37 27.02 -37 26 C-34.82421875 24.1953125 -34.82421875 24.1953125 -31.6875 22.125 C-30.50379014 21.33220458 -29.32020428 20.539224 -28.13671875 19.74609375 C-27.4823584 19.31280762 -26.82799805 18.87952148 -26.15380859 18.43310547 C-22.07781782 15.72101458 -18.04209659 12.94972264 -14 10.1875 C-13.18748779 9.63658691 -12.37497559 9.08567383 -11.5378418 8.51806641 C-10.37442261 7.72601807 -10.37442261 7.72601807 -9.1875 6.91796875 C-8.4553125 6.41958496 -7.723125 5.92120117 -6.96875 5.40771484 C-4.79857967 3.9033737 -4.79857967 3.9033737 -2.1875 1.55078125 C-1.465625 1.03902344 -0.74375 0.52726563 0 0 Z " fill="#0A68E6" transform="translate(312,772)"/>
<path d="M0 0 C0 5.36402387 -4.56295823 9.12788965 -8 13 C-9.92622898 14.81056627 -11.90693058 16.37205712 -14 18 C-14.825 18.825 -15.65 19.65 -16.5 20.5 C-19.20634644 23.20634644 -22.03327597 25.58522463 -25 28 C-25.66 27.67 -26.32 27.34 -27 27 C-18.09 18.09 -9.18 9.18 0 0 Z " fill="#33B3E0" transform="translate(978,534)"/>
<path d="M0 0 C1.65 0 3.3 0 5 0 C4.4225 0.48855469 3.845 0.97710937 3.25 1.48046875 C0.30567976 4.77749402 -1.22295185 8.29678769 -3 12.3125 C-5.4289956 17.71606637 -7.98085059 22.89844619 -11 28 C-11.33 28 -11.66 28 -12 28 C-12.28615099 23.35600788 -11.65541583 20.63979887 -9.375 16.6015625 C-8.83359375 15.62832031 -8.2921875 14.65507812 -7.734375 13.65234375 C-7.16203125 12.65332031 -6.5896875 11.65429688 -6 10.625 C-5.42765625 9.60277344 -4.8553125 8.58054687 -4.265625 7.52734375 C-2.85494465 5.01163046 -1.43288866 2.50310914 0 0 Z " fill="#45D9EC" transform="translate(356,436)"/>
<path d="M0 0 C0.66 0.33 1.32 0.66 2 1 C0.68 1.33 -0.64 1.66 -2 2 C-2 2.66 -2 3.32 -2 4 C-6.89326765 6.43530682 -11.25097115 8.33411816 -16.7734375 8.78515625 C-19.53019214 9.05115889 -22.21372183 9.56256603 -24.9375 10.0625 C-30.05282539 10.93997005 -34.81843416 11.17271886 -40 11 C-36.80202938 9.19228601 -33.88332994 8.47511569 -30.2734375 7.8515625 C-29.15839844 7.65046875 -28.04335938 7.449375 -26.89453125 7.2421875 C-24.57224171 6.83494916 -22.24933244 6.4312271 -19.92578125 6.03125 C-13.53733135 4.87238079 -7.82701377 3.39375667 -1.91259766 0.68505859 C-0.96586182 0.34595459 -0.96586182 0.34595459 0 0 Z " fill="#0E6FDE" transform="translate(633,741)"/>
<path d="M0 0 C1 3 1 3 0.23071289 4.92260742 C-0.1844458 5.64295166 -0.59960449 6.3632959 -1.02734375 7.10546875 C-1.48633057 7.91709473 -1.94531738 8.7287207 -2.41821289 9.56494141 C-2.91957764 10.43038574 -3.42094238 11.29583008 -3.9375 12.1875 C-4.9583741 13.98938947 -5.97657084 15.79279825 -6.9921875 17.59765625 C-7.50104492 18.5014502 -8.00990234 19.40524414 -8.53417969 20.33642578 C-11.0253012 24.86309728 -13.29626162 29.49448575 -15.53686523 34.14916992 C-16.82995835 36.80620579 -17.89346669 38.89346669 -20 41 C-19.45608093 36.78481956 -18.50887837 33.55590645 -16.5234375 29.8046875 C-16.02038086 28.8463501 -15.51732422 27.8880127 -14.99902344 26.90063477 C-14.4630957 25.90217529 -13.92716797 24.90371582 -13.375 23.875 C-12.56337402 22.34153931 -12.56337402 22.34153931 -11.73535156 20.77709961 C-7.99487745 13.74833961 -4.1508588 6.7963005 0 0 Z " fill="#2AA8EA" transform="translate(349,603)"/>
<path d="M0 0 C0.33 0.66 0.66 1.32 1 2 C1.66 2.33 2.32 2.66 3 3 C2.61328125 3.54527344 2.2265625 4.09054687 1.828125 4.65234375 C-1.31299025 9.20074083 -3.850977 13.63272891 -6 18.71875 C-7.09044295 21.20632297 -8.28751682 23.60181736 -9.5625 26 C-10.15224609 27.11375 -10.15224609 27.11375 -10.75390625 28.25 C-12 30 -12 30 -15 31 C-13.52697203 27.15583207 -11.80888966 23.50200588 -9.9609375 19.82421875 C-9.38085938 18.66728516 -8.80078125 17.51035156 -8.203125 16.31835938 C-7.59379386 15.10805083 -6.98441831 13.89776465 -6.375 12.6875 C-5.75762732 11.45777524 -5.14043795 10.22795844 -4.5234375 8.99804688 C-3.01742513 5.99778785 -1.50955101 2.99847973 0 0 Z " fill="#30B0DF" transform="translate(297,550)"/>
<path d="M0 0 C3.60562926 0.25316217 7.20899135 0.53087194 10.8125 0.8125 C12.31973633 0.91788086 12.31973633 0.91788086 13.85742188 1.02539062 C20.85790464 1.5881304 27.29481336 2.91668254 34 5 C34 5.33 34 5.66 34 6 C26.20575828 6.26876696 18.66640354 5.44271605 11 4 C10.67 3.67 10.34 3.34 10 3 C8.15108054 2.76636119 6.29511969 2.58696365 4.4375 2.4375 C3.42558594 2.35371094 2.41367187 2.26992188 1.37109375 2.18359375 C0.19740234 2.09271484 0.19740234 2.09271484 -1 2 C-0.67 1.34 -0.34 0.68 0 0 Z " fill="#3FC9ED" transform="translate(586,511)"/>
<path d="M0 0 C0.66 0 1.32 0 2 0 C3.7265625 1.75 3.7265625 1.75 5.625 4 C6.25664063 4.7425 6.88828125 5.485 7.5390625 6.25 C8.02117188 6.8275 8.50328125 7.405 9 8 C8.67 8.66 8.34 9.32 8 10 C7.01 9.34 6.02 8.68 5 8 C5.09539063 8.68707031 5.19078125 9.37414062 5.2890625 10.08203125 C5.39992188 10.98308594 5.51078125 11.88414062 5.625 12.8125 C5.74101563 13.70582031 5.85703125 14.59914063 5.9765625 15.51953125 C6 18 6 18 4 21 C2.68 14.07 1.36 7.14 0 0 Z " fill="#38B8E8" transform="translate(805,569)"/>
<path d="M0 0 C0.33 0.66 0.66 1.32 1 2 C-4.45466718 8.66474693 -10.5575694 14.31481712 -17 20 C-17.66 19.67 -18.32 19.34 -19 19 C-12.73 12.73 -6.46 6.46 0 0 Z " fill="#031C35" transform="translate(1000,624)"/>
<path d="M0 0 C0.33 0.66 0.66 1.32 1 2 C-1.10665848 6.60831544 -4.82044388 11.10576974 -9 14 C-10.32 13.67 -11.64 13.34 -13 13 C-8.71 8.71 -4.42 4.42 0 0 Z " fill="#2BAAE1" transform="translate(931,581)"/>
<path d="M0 0 C3 1 3 1 4.27441406 2.91772461 C4.68401367 3.73764893 5.09361328 4.55757324 5.515625 5.40234375 C5.96164062 6.29244141 6.40765625 7.18253906 6.8671875 8.09960938 C7.55167969 9.50436523 7.55167969 9.50436523 8.25 10.9375 C8.72179687 11.87013672 9.19359375 12.80277344 9.6796875 13.76367188 C12.23432062 18.92896076 12.23432062 18.92896076 13 21 C12.67 21.66 12.34 22.32 12 23 C0 3.76595745 0 3.76595745 0 0 Z " fill="#47D0E2" transform="translate(365,436)"/>
<path d="M0 0 C3.9444397 1.33188873 6.3059322 2.94652606 9.20703125 5.9140625 C10.33334961 7.05488281 10.33334961 7.05488281 11.48242188 8.21875 C12.25134766 9.0128125 13.02027344 9.806875 13.8125 10.625 C14.60076172 11.42679687 15.38902344 12.22859375 16.20117188 13.0546875 C18.14106673 15.02985317 20.07360084 17.01168427 22 19 C19 19 19 19 16.07421875 16.33203125 C14.93771354 15.16621407 13.80910076 13.99266334 12.6875 12.8125 C9.43204773 9.42879121 6.22393053 6.10906474 2.58203125 3.13671875 C1.72996094 2.43160156 0.87789062 1.72648437 0 1 C0 0.67 0 0.34 0 0 Z " fill="#3ED2F1" transform="translate(717,481)"/>
<path d="M0 0 C0.99 0.33 1.98 0.66 3 1 C-3.27 5.29 -9.54 9.58 -16 14 C-16 13.01 -16 12.02 -16 11 C-14.0234375 9.31640625 -14.0234375 9.31640625 -11.375 7.5625 C-10.46363281 6.95535156 -9.55226563 6.34820313 -8.61328125 5.72265625 C-7.75089844 5.15417969 -6.88851563 4.58570313 -6 4 C-5.06220703 3.31744141 -5.06220703 3.31744141 -4.10546875 2.62109375 C-2.5625 1.5 -2.5625 1.5 0 0 Z " fill="#0F76E4" transform="translate(358,741)"/>
<path d="M0 0 C0.77643769 2.27385323 1.13596514 3.57179809 0.3984375 5.89453125 C-2.08457306 10.54780676 -4.83372739 14.77830319 -8 19 C-8.7421875 17.4140625 -8.7421875 17.4140625 -9 15 C-7.79444253 12.64130059 -6.58507879 10.56267658 -5.125 8.375 C-4.37725183 7.21637315 -3.62984123 6.05752834 -2.8828125 4.8984375 C-2.26148438 3.94195313 -1.64015625 2.98546875 -1 2 C-0.67 1.34 -0.34 0.68 0 0 Z " fill="#178BE8" transform="translate(692,686)"/>
<path d="M0 0 C0.66 0 1.32 0 2 0 C2.37125 0.9075 2.7425 1.815 3.125 2.75 C5.48947223 8.28994701 8.2757468 13.63084079 11 19 C10.34 19.33 9.68 19.66 9 20 C7.48987869 17.23456804 5.99369852 14.46183193 4.5 11.6875 C4.07074219 10.90181641 3.64148438 10.11613281 3.19921875 9.30664062 C2.79316406 8.54931641 2.38710938 7.79199219 1.96875 7.01171875 C1.59169922 6.31522217 1.21464844 5.61872559 0.82617188 4.90112305 C0 3 0 3 0 0 Z " fill="#42CFED" transform="translate(427,478)"/>
<path d="M0 0 C0.99 0.33 1.98 0.66 3 1 C1.90033225 2.29549899 0.79508199 3.58626071 -0.3125 4.875 C-0.92738281 5.59429688 -1.54226563 6.31359375 -2.17578125 7.0546875 C-4 9 -4 9 -7 11 C-6.68232368 5.59950264 -3.80003673 3.47662935 0 0 Z " fill="#2FAFED" transform="translate(915,597)"/>
<path d="M0 0 C0.66 0 1.32 0 2 0 C3.19984797 2.26504965 4.38494769 4.53589888 5.5625 6.8125 C5.90474609 7.45509766 6.24699219 8.09769531 6.59960938 8.75976562 C7.4765023 10.46926395 8.24515617 12.23321294 9 14 C8.67 14.99 8.34 15.98 8 17 C6.65869239 14.73354942 5.32683766 12.46239903 4 10.1875 C3.42765625 9.22360352 3.42765625 9.22360352 2.84375 8.24023438 C0 3.33984375 0 3.33984375 0 0 Z " fill="#23A6F2" transform="translate(386,638)"/>
<path d="M0 0 C0.33 0 0.66 0 1 0 C1.66131596 5.2905277 0.04553852 8.15696618 -2.7109375 12.4609375 C-3.13632812 12.96882813 -3.56171875 13.47671875 -4 14 C-4.66 14 -5.32 14 -6 14 C-4.50829734 9.0276578 -2.39542583 4.58154261 0 0 Z " fill="#3CC4DB" transform="translate(343,460)"/>
<path d="M0 0 C0.66 0 1.32 0 2 0 C0.78184562 4.68520915 -0.69559987 8.70543612 -3 13 C-3.33 13 -3.66 13 -4 13 C-4.5497272 7.36529617 -2.95047835 4.61012242 0 0 Z " fill="#44D0E5" transform="translate(348,451)"/>
<path d="M0 0 C0.66 0 1.32 0 2 0 C0.79164932 6.04175338 -2.21274803 11.55822234 -5 17 C-6.36420006 12.90739982 -4.7664515 10.52987341 -3.0625 6.8125 C-2.77181641 6.15830078 -2.48113281 5.50410156 -2.18164062 4.83007812 C-1.46304657 3.21618656 -0.7326412 1.60756345 0 0 Z " fill="#1681E5" transform="translate(772,705)"/>
<path d="M0 0 C3 1 3 1 4.38671875 3.109375 C4.81597656 3.98078125 5.24523437 4.8521875 5.6875 5.75 C6.12449219 6.61109375 6.56148437 7.4721875 7.01171875 8.359375 C8.04127438 11.11028252 8.19360389 13.09070905 8 16 C6.13513805 13.20270707 4.49727525 10.38032298 2.875 7.4375 C2.33617187 6.46683594 1.79734375 5.49617187 1.2421875 4.49609375 C0 2 0 2 0 0 Z " fill="#36BBE6" transform="translate(760,532)"/>
<path d="M0 0 C2.718759 2.3624544 3.81604837 4.58166868 5.0625 7.9375 C6.4433832 11.61546392 6.4433832 11.61546392 8.18359375 15.12890625 C9 17 9 17 8 20 C5.03 13.73 2.06 7.46 -1 1 C-0.67 0.67 -0.34 0.34 0 0 Z " fill="#041D2D" transform="translate(372,443)"/>
<path d="M0 0 C0.33 0.66 0.66 1.32 1 2 C-2.3618226 6.25171681 -5.74828319 9.6381774 -10 13 C-10.66 12.67 -11.32 12.34 -12 12 C-8.04 8.04 -4.08 4.08 0 0 Z " fill="#2591D3" transform="translate(889,623)"/>
<path d="M0 0 C0 3.66184524 -0.919642 5.02806 -3 8 C-5.1875 9.8125 -5.1875 9.8125 -7 11 C-7.66 10.34 -8.32 9.68 -9 9 C-6.03 6.03 -3.06 3.06 0 0 Z " fill="#269BDD" transform="translate(899,613)"/>
<path d="M0 0 C0.66 0.33 1.32 0.66 2 1 C-0.97 5.29 -3.94 9.58 -7 14 C-7.66 13.01 -8.32 12.02 -9 11 C-8.525625 10.54625 -8.05125 10.0925 -7.5625 9.625 C-5.90972192 8.06741796 -5.90972192 8.06741796 -5 6 C-4.34 6 -3.68 6 -3 6 C-2.814375 4.7934375 -2.814375 4.7934375 -2.625 3.5625 C-2.41875 2.716875 -2.2125 1.87125 -2 1 C-1.34 0.67 -0.68 0.34 0 0 Z " fill="#1177E8" transform="translate(755,739)"/>
<path d="M0 0 C0.66 0.33 1.32 0.66 2 1 C-3.75934579 6.95794393 -3.75934579 6.95794393 -8.6875 7.125 C-10.3271875 7.063125 -10.3271875 7.063125 -12 7 C-9.5129261 5.34195074 -7.02682498 3.80125522 -4.4375 2.3125 C-3.65246094 1.85488281 -2.86742187 1.39726563 -2.05859375 0.92578125 C-1.37925781 0.62027344 -0.69992187 0.31476562 0 0 Z " fill="#0F6DD5" transform="translate(647,734)"/>
<path d="M0 0 C1.44839346 4.47240412 0.05234254 6.82201697 -2 11 C-3.5625 13.9375 -3.5625 13.9375 -5 16 C-5.66 16 -6.32 16 -7 16 C-5.56835889 12.34061828 -4.01065704 8.76011932 -2.375 5.1875 C-1.92898437 4.21167969 -1.48296875 3.23585938 -1.0234375 2.23046875 C-0.51683594 1.12638672 -0.51683594 1.12638672 0 0 Z " fill="#0D78E1" transform="translate(209,722)"/>
<path d="M0 0 C-1.3609623 4.08288689 -3.47953322 4.88685817 -7.0625 7.1875 C-8.16722656 7.90292969 -9.27195312 8.61835937 -10.41015625 9.35546875 C-11.26480469 9.89816406 -12.11945313 10.44085937 -13 11 C-13 10.01 -13 9.02 -13 8 C-10.6640625 5.95703125 -10.6640625 5.95703125 -7.625 3.8125 C-6.12839844 2.73935547 -6.12839844 2.73935547 -4.6015625 1.64453125 C-2 0 -2 0 0 0 Z " fill="#075FE0" transform="translate(288,790)"/>
<path d="M0 0 C1.44402331 4.87873589 -0.15868135 7.42252754 -2.5 11.8125 C-2.995 12.534375 -3.49 13.25625 -4 14 C-4.66 14 -5.32 14 -6 14 C-4.50829734 9.0276578 -2.39542583 4.58154261 0 0 Z " fill="#0B6FDC" transform="translate(201,738)"/>
<path d="M0 0 C0.33 0.99 0.66 1.98 1 3 C1.66 3.33 2.32 3.66 3 4 C2.34 6.97 1.68 9.94 1 13 C0.34 13 -0.32 13 -1 13 C-0.67 8.71 -0.34 4.42 0 0 Z " fill="#1B8FDB" transform="translate(810,659)"/>
<path d="M0 0 C6.27 0 12.54 0 19 0 C19 0.33 19 0.66 19 1 C18.02417969 1.04898437 17.04835938 1.09796875 16.04296875 1.1484375 C14.77066406 1.22320312 13.49835938 1.29796875 12.1875 1.375 C10.29064453 1.47941406 10.29064453 1.47941406 8.35546875 1.5859375 C4.87244766 1.76102939 4.87244766 1.76102939 2 4 C1.34 2.68 0.68 1.36 0 0 Z " fill="#47D4E8" transform="translate(404,436)"/>
<path d="M0 0 C0.66 0.33 1.32 0.66 2 1 C-0.62559946 4.69528813 -2.5369351 6.85562438 -7 8 C-7.99 7.67 -8.98 7.34 -10 7 C-6.7 4.69 -3.4 2.38 0 0 Z " fill="#0F72D8" transform="translate(659,726)"/>
<path d="M0 0 C0.66 0 1.32 0 2 0 C4.08814329 2.87119703 5.08935769 5.31538009 6.0625 8.75 C6.371875 9.8225 6.68125 10.895 7 12 C7.66 12.33 8.32 12.66 9 13 C9 13.66 9 14.32 9 15 C8.34 15 7.68 15 7 15 C4.69 10.05 2.38 5.1 0 0 Z " fill="#27A6EB" transform="translate(376,620)"/>
<path d="M0 0 C0.66 0 1.32 0 2 0 C2.86627399 1.59766103 3.71766465 3.20339944 4.5625 4.8125 C5.27599609 6.15248047 5.27599609 6.15248047 6.00390625 7.51953125 C7 10 7 10 6 13 C4.99491199 11.21118264 3.99607264 9.41885304 3 7.625 C2.1646875 6.12839844 2.1646875 6.12839844 1.3125 4.6015625 C0 2 0 2 0 0 Z " fill="#33BAF1" transform="translate(690,572)"/>
<path d="M0 0 C2.72426311 2.35277269 3.8141763 4.62496331 5 8 C5.66 8 6.32 8 7 8 C6.67 9.65 6.34 11.3 6 13 C3.01947605 10.44526518 1.53659812 7.58539561 0 4 C0 2.68 0 1.36 0 0 Z " fill="#45D2ED" transform="translate(417,458)"/>
<path d="M0 0 C3.7102381 3.45435961 6.83840258 6.57603873 7.1875 11.8125 C7.125625 12.534375 7.06375 13.25625 7 14 C3.94998169 10.33997803 0 4.92148529 0 0 Z " fill="#014ACE" transform="translate(556,808)"/>
<path d="M0 0 C1.98 0 3.96 0 6 0 C3.22719294 3.08089673 0.93673644 4.68775452 -3 6 C-3 5.01 -3 4.02 -3 3 C-2.01 3 -1.02 3 0 3 C0 2.01 0 1.02 0 0 Z " fill="#1D85E9" transform="translate(384,721)"/>
<path d="M0 0 C0.33 0 0.66 0 1 0 C1.33692785 1.60341555 1.66941093 3.20776555 2 4.8125 C2.185625 5.70582031 2.37125 6.59914063 2.5625 7.51953125 C3 10 3 10 3 13 C0.984375 11.82421875 0.984375 11.82421875 -1 10 C-1.171875 7.51953125 -1.171875 7.51953125 -0.75 4.8125 C-0.62109375 3.91144531 -0.4921875 3.01039063 -0.359375 2.08203125 C-0.24078125 1.39496094 -0.1221875 0.70789063 0 0 Z " fill="#1988D7" transform="translate(808,672)"/>
<path d="M0 0 C0.99 0.33 1.98 0.66 3 1 C2.67 5.29 2.34 9.58 2 14 C1.67 14 1.34 14 1 14 C0.67 9.38 0.34 4.76 0 0 Z " fill="#2999CE" transform="translate(809,590)"/>
<path d="M0 0 C-1.40552299 1.03612271 -2.82491694 2.05344925 -4.25 3.0625 C-5.43335938 3.91521484 -5.43335938 3.91521484 -6.640625 4.78515625 C-9 6 -9 6 -11.296875 5.68359375 C-11.85890625 5.45800781 -12.4209375 5.23242188 -13 5 C-11.40377344 3.96679519 -9.79770894 2.94877571 -8.1875 1.9375 C-7.29417969 1.36902344 -6.40085938 0.80054688 -5.48046875 0.21484375 C-3 -1 -3 -1 0 0 Z " fill="#0357DB" transform="translate(250,818)"/>
<path d="M0 0 C1.98 0 3.96 0 6 0 C6 0.66 6 1.32 6 2 C8.475 2.99 8.475 2.99 11 4 C11 4.66 11 5.32 11 6 C7.2089881 4.55049545 3.6125362 2.84827434 0 1 C0 0.67 0 0.34 0 0 Z " fill="#35B5DB" transform="translate(637,524)"/>
<path d="M0 0 C0.66 1.32 1.32 2.64 2 4 C-0.20979308 6.81939117 -2.40062046 9.53058944 -5 12 C-3.68938409 7.76570244 -2.05643741 3.92592596 0 0 Z " fill="#076DE4" transform="translate(191,758)"/>
<path d="M0 0 C0.66 0.33 1.32 0.66 2 1 C1.01 1 0.02 1 -1 1 C-0.67 0.67 -0.34 0.34 0 0 Z M-4 2 C-3.01 2.33 -2.02 2.66 -1 3 C-2.98 5.31 -4.96 7.62 -7 10 C-7.66 9.67 -8.32 9.34 -9 9 C-7.35 6.69 -5.7 4.38 -4 2 Z " fill="#3BCCEE" transform="translate(1018,496)"/>
<path d="M0 0 C0.66 0.99 1.32 1.98 2 3 C1.319375 3.5878125 1.319375 3.5878125 0.625 4.1875 C-1.27642919 6.30832487 -2.06204028 8.33042235 -3 11 C-3.66 11 -4.32 11 -5 11 C-3.77472971 6.94718288 -2.30119506 3.55639236 0 0 Z " fill="#062542" transform="translate(339,625)"/>
<path d="M0 0 C2.64465038 3.1254959 3.84414715 6.08788267 5 10 C2 9 2 9 0.25 5.5625 C-0.1625 4.386875 -0.575 3.21125 -1 2 C-0.67 1.34 -0.34 0.68 0 0 Z " fill="#09243D" transform="translate(367,603)"/>
<path d="M0 0 C0 4.38968456 -2.12805101 5.76905739 -5 9 C-5.99 8.67 -6.98 8.34 -8 8 C-5.36 5.36 -2.72 2.72 0 0 Z " fill="#38B7D9" transform="translate(1011,501)"/>
<path d="M0 0 C1.2065625 0.0309375 1.2065625 0.0309375 2.4375 0.0625 C1.798125 0.660625 1.15875 1.25875 0.5 1.875 C-1.76560389 3.97060337 -1.76560389 3.97060337 -2.5625 7.0625 C-3.2225 7.0625 -3.8825 7.0625 -4.5625 7.0625 C-3.5234375 0.0859375 -3.5234375 0.0859375 0 0 Z " fill="#4FE4F2" transform="translate(358.5625,435.9375)"/>
<path d="M0 0 C0.99 0.33 1.98 0.66 3 1 C0.69 3.64 -1.62 6.28 -4 9 C-4 5.28703828 -2.65223411 2.65223411 0 0 Z " fill="#38C1EA" transform="translate(982,530)"/>
<path d="M0 0 C0.6875 1.6875 0.6875 1.6875 1 4 C-0.3125 6.75 -0.3125 6.75 -2 9 C-2.66 9 -3.32 9 -4 9 C-2.94124926 5.59687262 -1.99097846 2.98646769 0 0 Z " fill="#198EE2" transform="translate(237,668)"/>
<path d="M0 0 C0 0.99 0 1.98 0 3 C-1.53125 4.38671875 -1.53125 4.38671875 -3.5 5.6875 C-4.47453125 6.34298828 -4.47453125 6.34298828 -5.46875 7.01171875 C-5.9740625 7.33785156 -6.479375 7.66398438 -7 8 C-6.40168778 4.39497955 -6.12580062 4.09242495 -2.9375 1.75 C-1.968125 1.1725 -0.99875 0.595 0 0 Z " fill="#34BBE9" transform="translate(970,544)"/>
<path d="M0 0 C0.99 0 1.98 0 3 0 C2.40138258 2.35171131 1.73075648 4.6859378 1 7 C0.01 7.495 0.01 7.495 -1 8 C-1.125 2.25 -1.125 2.25 0 0 Z " fill="#44D7F0" transform="translate(336,474)"/>
<path d="M0 0 C0.99 0.33 1.98 0.66 3 1 C2.01 2.32 1.02 3.64 0 5 C-1.32 4.67 -2.64 4.34 -4 4 C-2.68 2.68 -1.36 1.36 0 0 Z " fill="#26A8E2" transform="translate(915,597)"/>
<path d="M0 0 C4.875 4.625 4.875 4.625 6 8 C5.01 8.495 5.01 8.495 4 9 C0 3.375 0 3.375 0 0 Z " fill="#2DB5EA" transform="translate(683,560)"/>
<path d="M0 0 C0 0.99 0 1.98 0 3 C-0.99 3.495 -0.99 3.495 -2 4 C-2 3.01 -2 2.02 -2 1 C-1.34 0.67 -0.68 0.34 0 0 Z M-5 5 C-4.34 5.33 -3.68 5.66 -3 6 C-3.99 7.485 -3.99 7.485 -5 9 C-5.99 8.67 -6.98 8.34 -8 8 C-7.01 7.01 -6.02 6.02 -5 5 Z " fill="#42DCFA" transform="translate(1033,481)"/>
<path d="M0 0 C0.66 0 1.32 0 2 0 C2.33 2.64 2.66 5.28 3 8 C2.34 8 1.68 8 1 8 C0.67 5.36 0.34 2.72 0 0 Z " fill="#2CB0E8" transform="translate(781,587)"/>
<path d="M0 0 C0.33 0 0.66 0 1 0 C0.67 2.64 0.34 5.28 0 8 C-0.99 8 -1.98 8 -3 8 C-1.125 2.25 -1.125 2.25 0 0 Z " fill="#36B7D6" transform="translate(320,505)"/>
<path d="M0 0 C0.33 0.99 0.66 1.98 1 3 C-1.97 5.475 -1.97 5.475 -5 8 C-5.66 7.67 -6.32 7.34 -7 7 C-4.69 4.69 -2.38 2.38 0 0 Z " fill="#36AFCA" transform="translate(1038,474)"/>
</svg>
